<!DOCTYPE svg PUBLIC "-//W3C//DTD SVG 1.1//EN" "http://www.w3.org/Graphics/SVG/1.1/DTD/svg11.dtd">
<!-- Uploaded to: SVG Repo, www.svgrepo.com, Transformed by: SVG Repo Mixer Tools -->
<svg height="800px" width="800px" version="1.1" id="Layer_1" xmlns="http://www.w3.org/2000/svg" xmlns:xlink="http://www.w3.org/1999/xlink" viewBox="0 0 392.663 392.663" xml:space="preserve" fill="#000000">
<g id="SVGRepo_bgCarrier" stroke-width="0"/>
<g id="SVGRepo_tracerCarrier" stroke-linecap="round" stroke-linejoin="round"/>
<g id="SVGRepo_iconCarrier"> <path style="fill:#FFFFFF;" d="M370.78,161.293c0-19.265-15.58-34.844-34.844-34.844H105.859c-19.265,0-34.844,15.58-34.844,34.844 v149.592c0,19.265,15.58,34.844,34.844,34.844h230.077c19.265,0,34.844-15.58,34.844-34.844V161.293L370.78,161.293z"/> <path style="fill:#010001;" d="M92.8,322.069V150.044c0-1.034,0.84-1.875,1.875-1.875h252.444c1.034,0,1.875,0.84,1.875,1.875 v172.024c0,1.034-0.84,1.875-1.875,1.875H94.675C93.576,323.879,92.8,323.103,92.8,322.069z"/> <g> <path style="fill:#FFE180;" d="M179.556,250.311c-16.485,0.646-28.638,12.541-28.638,29.414c0,17.261,13.382,29.802,28.638,29.414 c16.485-0.646,28.638-12.541,28.638-29.414C208.194,262.529,194.812,249.859,179.556,250.311z M195.653,279.725 c-0.646,10.925-7.046,18.036-16.162,18.295c-7.952,0.259-16.356-7.952-16.162-18.295h0.065 c0.646-10.925,7.046-18.036,16.162-18.295c7.952-0.259,16.356,7.952,16.162,18.295H195.653z"/> <path style="fill:#FFE180;" d="M244.008,250.311c-16.485,0.646-28.638,12.541-28.638,29.414c0,17.261,13.382,29.802,28.638,29.414 c16.485-0.646,28.638-12.541,28.638-29.414C272.646,262.529,259.265,249.859,244.008,250.311z M260.105,279.725 c-0.646,10.925-7.046,18.036-16.162,18.295c-7.952,0.259-16.356-7.952-16.162-18.295h0.065 c0.646-10.925,7.046-18.036,16.162-18.295c7.952-0.259,16.356,7.952,16.162,18.295H260.105z"/> <path style="fill:#FFE180;" d="M335.871,104.598h-20.945V66.327h50.747c6.012,0,10.925-4.848,10.925-10.925 c0-6.012-4.848-10.925-10.925-10.925H21.818V10.925C21.818,4.913,16.97,0,10.893,0S0.032,4.978,0.032,10.99v370.747 c0,6.012,4.848,10.925,10.925,10.925s10.925-4.848,10.925-10.925V66.327h104.921v38.271h-20.881 c-31.224,0-56.695,25.406-56.695,56.695v149.592c0,31.224,25.406,56.695,56.695,56.695h230.012 c31.224,0,56.695-25.406,56.695-56.695V161.293C392.566,130.004,367.16,104.598,335.871,104.598z M148.59,66.327h144.549v38.271 H148.59V66.327z M370.78,310.885c0,19.265-15.58,34.844-34.844,34.844H105.859c-19.265,0-34.844-15.58-34.844-34.844V161.293 c0-19.265,15.58-34.844,34.844-34.844h230.077c19.265,0,34.844,15.58,34.844,34.844V310.885L370.78,310.885z"/> <path style="fill:#FFE180;" d="M124.412,210.683c-5.042,0-10.408-2.715-16.291-8.016l-7.24,9.244 c6.982,6.659,14.675,10.02,23.337,10.02c11.119,0.646,20.299-7.176,19.911-17.261c0.323-9.438-5.495-15.063-16.356-17.648 c-6.335-1.875-11.895-2.78-12.024-7.434c0.129-3.62,3.103-6.077,6.594-5.495c5.042,0,9.956,1.875,14.675,5.624l6.206-9.244 c-5.43-4.848-13.382-7.628-20.493-7.499c-10.408,0-19.653,5.495-19.459,16.937c-0.065,13.123,8.275,14.675,18.295,18.101 c5.56,1.552,10.667,3.232,10.02,7.111C131.071,209.455,128.226,210.747,124.412,210.683z"/> <polygon style="fill:#FFE180;" points="165.01,221.285 177.228,221.285 177.228,175.321 192.679,175.321 192.679,164.331 149.56,164.331 149.56,175.321 165.01,175.321 "/> <path style="fill:#FFE180;" d="M236.38,221.285h12.994l-23.596-56.954h-11.766l-23.531,56.954h12.994l5.107-12.283h22.885 L236.38,221.285z M213.042,197.818l6.853-16.549l6.788,16.549H213.042z"/> <polygon style="fill:#FFE180;" points="267.863,198.917 291.911,198.917 291.911,187.798 267.863,187.798 267.863,175.451 293.139,175.451 293.139,164.331 255.644,164.331 255.644,221.285 267.863,221.285 "/> <polygon style="fill:#FFE180;" points="315.636,198.917 339.62,198.917 339.62,187.798 315.636,187.798 315.636,175.451 340.848,175.451 340.848,164.331 303.418,164.331 303.418,221.285 315.636,221.285 "/> <path style="fill:#FFE180;" d="M142.061,270.481c-0.453-14.61-7.628-19.006-23.596-18.941H97.778v56.954h12.218v-18.166h8.404 l12.154,18.166h14.998l-13.834-20.428C138.634,285.543,142.061,279.596,142.061,270.481z M118.853,279.402h-8.857v-16.873h9.115 c6.206,0.129,10.602,0.84,10.537,8.016C129.584,277.527,126.352,279.337,118.853,279.402z"/> <polygon style="fill:#FFE180;" points="313.438,282.958 299.41,251.669 282.925,251.669 282.925,308.622 295.079,308.622 295.079,272.743 309.754,303.903 316.994,303.903 331.733,272.743 331.733,308.622 343.887,308.622 343.887,251.669 327.531,251.669 "/> </g> </g>
</svg>